<?xml version="1.0" standalone="no"?>
<!DOCTYPE svg PUBLIC "-//W3C//DTD SVG 20010904//EN"
 "http://www.w3.org/TR/2001/REC-SVG-20010904/DTD/svg10.dtd">
<svg version="1.0" xmlns="http://www.w3.org/2000/svg"
 width="51.000000pt" height="51.000000pt" viewBox="0 0 51.000000 51.000000"
 preserveAspectRatio="xMidYMid meet">

<g transform="translate(0.000000,51.000000) scale(0.100000,-0.100000)"
fill="#000000" stroke="none">
<path d="M7 504 c-12 -13 -8 -209 5 -222 16 -16 200 -16 216 0 17 17 16 123
-2 137 -21 18 -39 -12 -34 -59 l4 -40 -78 0 -78 0 0 75 0 74 98 3 c78 2 97 6
97 18 0 12 -20 16 -111 18 -60 1 -113 -1 -117 -4z"/>
<path d="M305 500 c-11 -18 6 -30 43 -30 53 0 82 -23 82 -66 0 -24 -5 -34 -15
-34 -23 0 -18 -34 10 -60 l25 -24 30 29 c35 33 39 55 10 55 -12 0 -20 6 -19
13 5 41 -4 71 -30 98 -25 24 -38 29 -80 29 -27 0 -53 -4 -56 -10z"/>
<path d="M282 118 l3 -113 110 0 110 0 0 70 c0 56 -3 70 -15 70 -11 0 -16 -14
-18 -52 l-3 -53 -75 0 -74 0 0 75 0 74 92 3 c79 3 93 6 96 21 3 15 -7 17 -113
17 l-116 0 3 -112z"/>
<path d="M25 195 c-30 -30 -32 -55 -5 -55 12 0 20 -6 19 -12 -5 -43 4 -72 31
-99 26 -27 35 -30 82 -27 39 2 53 7 53 18 0 10 -14 17 -46 20 -26 3 -54 12
-63 19 -21 18 -22 81 -1 81 23 0 18 34 -8 58 -29 28 -32 27 -62 -3z"/>
</g>
</svg>
