<?xml version="1.0" standalone="no"?>
<!DOCTYPE svg PUBLIC "-//W3C//DTD SVG 20010904//EN"
 "http://www.w3.org/TR/2001/REC-SVG-20010904/DTD/svg10.dtd">
<svg version="1.0" xmlns="http://www.w3.org/2000/svg"
 width="51.000000pt" height="51.000000pt" viewBox="0 0 51.000000 51.000000"
 preserveAspectRatio="xMidYMid meet">

<g transform="translate(0.000000,51.000000) scale(0.100000,-0.100000)"
fill="#000000" stroke="none">
<path d="M224 489 c-15 -17 -26 -20 -61 -14 -40 6 -43 5 -49 -22 -9 -39 -20
-50 -54 -57 -32 -6 -36 -19 -21 -59 8 -20 5 -29 -15 -48 -30 -28 -30 -40 0
-68 20 -19 23 -28 15 -48 -15 -40 -11 -53 21 -59 34 -7 45 -18 54 -57 6 -27 9
-28 49 -22 35 6 46 3 61 -14 24 -26 38 -26 62 0 15 17 26 20 61 14 40 -6 43
-5 49 22 9 39 20 50 54 57 32 6 36 19 21 59 -8 20 -5 29 15 48 13 12 24 28 24
34 0 6 -11 22 -24 34 -20 19 -23 28 -15 48 15 39 11 52 -18 59 -39 9 -50 20
-57 55 -6 29 -7 30 -49 24 -35 -6 -46 -3 -61 14 -11 12 -24 21 -31 21 -7 0
-20 -9 -31 -21z m60 -48 c14 -15 24 -17 46 -11 26 7 30 5 39 -21 7 -19 21 -33
40 -40 26 -9 28 -13 21 -39 -7 -23 -4 -32 16 -51 l24 -23 -24 -25 c-18 -20
-22 -32 -16 -53 7 -24 4 -28 -21 -37 -19 -7 -33 -21 -40 -40 -9 -26 -13 -28
-39 -21 -22 6 -32 4 -46 -11 -22 -24 -36 -24 -58 0 -14 15 -24 17 -46 11 -26
-7 -30 -5 -39 21 -7 19 -21 33 -40 40 -25 9 -28 13 -21 37 6 21 2 33 -16 53
l-24 25 24 23 c20 19 23 28 16 51 -7 26 -5 30 21 39 19 7 33 21 40 40 9 26 13
28 39 21 22 -6 32 -4 46 11 9 10 22 19 29 19 7 0 20 -9 29 -19z"/>
<path d="M150 360 c-32 -32 -25 -66 18 -89 43 -23 94 28 71 72 -23 42 -57 49
-89 17z m55 -40 c0 -22 -29 -18 -33 3 -3 14 1 18 15 15 10 -2 18 -10 18 -18z"/>
<path d="M242 267 c-79 -79 -97 -107 -69 -107 16 0 177 161 177 178 0 27 -30
8 -108 -71z"/>
<path d="M298 239 c-62 -35 -25 -125 42 -104 47 15 50 83 5 103 -30 14 -26 14
-47 1z m40 -52 c2 -10 -3 -17 -12 -17 -18 0 -29 16 -21 31 9 14 29 6 33 -14z"/>
</g>
</svg>
