<?xml version="1.0" standalone="no"?>
<!DOCTYPE svg PUBLIC "-//W3C//DTD SVG 20010904//EN"
 "http://www.w3.org/TR/2001/REC-SVG-20010904/DTD/svg10.dtd">
<svg version="1.0" xmlns="http://www.w3.org/2000/svg"
 width="43.000000pt" height="51.000000pt" viewBox="0 0 43.000000 51.000000"
 preserveAspectRatio="xMidYMid meet">

<g transform="translate(0.000000,51.000000) scale(0.100000,-0.100000)"
fill="#000000" stroke="none">
<path d="M122 443 l3 -68 70 0 c58 0 70 3 73 18 3 14 -5 17 -52 17 -56 0 -56
0 -56 30 0 30 1 30 54 30 49 0 55 -2 58 -22 3 -20 10 -23 61 -26 l57 -3 0
-189 0 -190 -175 0 -175 0 0 190 c0 181 1 190 19 190 11 0 22 4 25 9 10 15
-21 33 -51 29 l-28 -3 -3 -228 -2 -227 215 0 215 0 -2 228 -3 227 -57 3 c-54
3 -58 5 -58 27 0 25 -1 25 -95 25 l-96 0 3 -67z"/>
<path d="M94 325 c-7 -18 3 -35 21 -35 18 0 26 25 12 39 -15 15 -27 14 -33 -4z"/>
<path d="M154 319 c-13 -22 15 -30 97 -27 70 3 84 6 87 21 3 15 -6 17 -87 17
-54 0 -93 -4 -97 -11z"/>
<path d="M101 260 c-17 -10 -7 -40 13 -40 7 0 16 6 19 14 8 19 -15 37 -32 26z"/>
<path d="M154 249 c-13 -22 15 -30 97 -27 70 3 84 6 87 21 3 15 -6 17 -87 17
-54 0 -93 -4 -97 -11z"/>
<path d="M90 175 c0 -21 30 -31 40 -14 11 17 3 29 -21 29 -10 0 -19 -7 -19
-15z"/>
<path d="M155 180 c-14 -23 13 -31 96 -28 67 2 84 6 84 18 0 12 -18 16 -87 18
-56 2 -89 -1 -93 -8z"/>
<path d="M90 105 c0 -21 30 -31 40 -14 11 17 3 29 -21 29 -10 0 -19 -7 -19
-15z"/>
<path d="M155 110 c-14 -23 13 -31 96 -28 67 2 84 6 84 18 0 12 -18 16 -87 18
-56 2 -89 -1 -93 -8z"/>
</g>
</svg>
