<?xml version="1.0" standalone="no"?>
<!DOCTYPE svg PUBLIC "-//W3C//DTD SVG 20010904//EN"
 "http://www.w3.org/TR/2001/REC-SVG-20010904/DTD/svg10.dtd">
<svg version="1.0" xmlns="http://www.w3.org/2000/svg"
 width="51.000000pt" height="51.000000pt" viewBox="0 0 51.000000 51.000000"
 preserveAspectRatio="xMidYMid meet">

<g transform="translate(0.000000,51.000000) scale(0.100000,-0.100000)"
fill="#000000" stroke="none">
<path d="M212 498 c-6 -6 -12 -18 -12 -25 0 -23 -35 -33 -69 -20 -28 10 -33 9
-58 -16 -25 -25 -26 -30 -16 -58 14 -36 7 -55 -28 -73 -35 -17 -35 -85 0 -102
35 -18 42 -37 28 -73 -10 -28 -9 -33 16 -58 25 -25 30 -26 58 -16 36 14 55 7
73 -28 9 -19 19 -24 51 -24 32 0 42 5 51 24 18 35 37 42 73 28 28 -10 33 -9
58 16 25 25 26 30 16 58 -14 36 -7 55 28 73 19 9 24 19 24 51 0 32 -5 42 -24
51 -35 18 -42 37 -28 73 10 28 9 33 -16 58 -25 25 -30 26 -58 16 -36 -14 -55
-7 -72 28 -14 27 -73 39 -95 17z m58 -51 c0 -17 10 -26 47 -39 41 -15 49 -15
63 -3 23 21 46 -2 25 -25 -12 -14 -12 -22 3 -63 13 -37 22 -47 39 -47 14 0 23
-6 23 -15 0 -9 -9 -15 -23 -15 -17 0 -26 -10 -39 -47 -15 -41 -15 -49 -3 -63
21 -23 -2 -46 -25 -25 -14 12 -22 12 -63 -3 -37 -13 -47 -22 -47 -39 0 -14 -6
-23 -15 -23 -9 0 -15 9 -15 23 0 17 -10 26 -47 39 -41 15 -49 15 -63 3 -23
-21 -46 2 -25 25 12 14 12 22 -3 63 -13 37 -22 47 -39 47 -14 0 -23 6 -23 15
0 9 9 15 23 15 17 0 26 10 39 47 15 41 15 49 3 63 -21 23 2 46 25 25 14 -12
22 -12 63 3 37 13 47 22 47 39 0 14 6 23 15 23 9 0 15 -9 15 -23z"/>
<path d="M185 327 c-48 -48 -49 -95 -1 -143 48 -48 95 -47 143 1 26 26 34 41
31 62 -4 39 -30 35 -40 -5 -15 -59 -96 -70 -120 -16 -18 38 0 77 42 90 42 14
46 38 7 42 -21 3 -36 -5 -62 -31z"/>
</g>
</svg>
